<svg width="28" height="27" viewBox="0 0 28 27" fill="none" xmlns="http://www.w3.org/2000/svg">
<path d="M3.47356 0.147464C3.23005 0.385043 3.27756 0.54541 3.87151 1.44227C4.16848 1.89367 4.46546 2.28568 4.51891 2.32132C4.81589 2.47574 5.22571 2.2441 5.22571 1.91743C5.22571 1.73925 4.21006 0.147464 4.03188 0.0524321C3.84775 -0.0425999 3.62205 -0.00696301 3.47356 0.147464Z" fill="#0066DF"/>
<path d="M23.5134 0.0583713C23.3412 0.159343 22.3315 1.74519 22.3315 1.91743C22.3315 2.2441 22.7413 2.47574 23.0383 2.32132C23.2164 2.22629 24.2321 0.634502 24.2321 0.456317C24.2321 0.129645 23.8044 -0.107934 23.5134 0.0583713Z" fill="#0066DF"/>
<path d="M0.147453 0.622621C-0.00697351 0.771108 -0.0426104 0.996809 0.0524214 1.18093C0.0821188 1.23439 0.800797 1.73924 1.6442 2.3035C2.70737 3.0103 3.23005 3.32509 3.3429 3.32509C3.66957 3.32509 3.90121 2.91526 3.74678 2.61829C3.71709 2.56483 2.99841 2.05998 2.155 1.49573C1.09183 0.788926 0.569157 0.474133 0.456307 0.474133C0.361275 0.474133 0.230606 0.533528 0.147453 0.622621Z" fill="#0066DF"/>
<path d="M25.3843 1.5076C24.5291 2.0778 23.8163 2.58859 23.7926 2.64205C23.6738 2.95684 23.8995 3.32509 24.2143 3.32509C24.4578 3.32509 27.481 1.29972 27.5344 1.10372C27.6057 0.806745 27.3681 0.474133 27.089 0.474133C26.988 0.474133 26.3822 0.842382 25.3843 1.5076Z" fill="#0066DF"/>
<path d="M9.98324 3.80618C8.86068 4.86935 7.50647 5.42766 5.87311 5.50487C5.10098 5.54051 4.26351 5.46923 3.6755 5.31481C3.50326 5.26729 3.35477 5.23759 3.34883 5.24353C3.33695 5.24947 3.38447 5.43954 3.4498 5.66524C3.91902 7.36987 3.79429 9.02105 3.10531 10.1971C2.86773 10.6128 2.18469 11.3018 1.70953 11.6166C1.31159 11.8839 0.420663 12.2878 0.230599 12.2937C0.0108379 12.2937 0.0999303 12.3769 0.581029 12.6204C2.10154 13.3866 2.93901 14.6576 3.01028 16.3326C3.04592 17.1522 2.94495 17.8115 2.64203 18.7381C2.52918 19.0885 2.43415 19.3855 2.43415 19.3973C2.43415 19.4033 2.68361 19.2964 2.99246 19.1479C4.45952 18.453 5.70681 18.4886 6.4433 19.2429L6.66307 19.4627L5.75432 20.9119C5.25541 21.7078 4.72085 22.569 4.56643 22.8185L4.28133 23.2758L4.97625 23.5075C5.35638 23.6381 5.66523 23.7629 5.65929 23.7926C5.65335 23.8223 5.24947 24.5528 4.75649 25.414C4.26351 26.2753 3.86557 26.988 3.87151 26.9999C3.9012 27.0236 8.45679 23.3649 8.47461 23.2996C8.48649 23.2699 8.18357 23.0382 7.80345 22.7828C7.32829 22.4621 7.13229 22.3017 7.16792 22.2542C7.51835 21.7791 7.98163 21.2683 8.30236 21.0069C9.0745 20.3714 10.0842 19.9556 10.8445 19.9556C11.6701 19.9556 12.5907 20.6387 13.4935 21.9216C13.6301 22.1117 13.7608 22.2721 13.7845 22.2721C13.8083 22.2721 13.8974 22.1711 13.9924 22.0523C14.5863 21.2742 15.4713 20.5199 16.19 20.1814C16.582 19.9972 16.6295 19.9853 17.2532 19.9913C17.7937 19.9972 17.9956 20.0269 18.4114 20.1635C18.9281 20.3298 19.5042 20.5971 19.7893 20.7991L19.9497 20.9119L20.1398 20.5377C20.5437 19.724 21.1911 19.041 21.8206 18.7678C22.6759 18.3876 23.7688 18.5421 24.7666 19.1895C24.9626 19.3142 25.123 19.4092 25.123 19.3973C25.123 19.3855 25.028 19.0885 24.9151 18.7381C24.3865 17.1285 24.4103 15.6733 24.9745 14.5507C25.3784 13.7548 26.103 13.0599 26.9821 12.6144C27.3681 12.4244 27.481 12.3472 27.3978 12.3175C26.4534 12.0205 25.806 11.6582 25.2062 11.0939C24.4875 10.405 24.0776 9.65064 23.8995 8.67062C23.751 7.84503 23.8341 6.66307 24.1073 5.66524C24.1727 5.43954 24.2202 5.24947 24.2083 5.24353C24.2024 5.23759 24.0539 5.26729 23.8816 5.31481C22.8838 5.57615 21.3692 5.58208 20.3595 5.32075C19.237 5.03565 18.4173 4.59019 17.562 3.80024L17.1047 3.37259L16.7424 3.69927C16.3029 4.10315 15.7148 4.41795 15.1031 4.58425C14.4379 4.76244 13.1193 4.76244 12.4541 4.58425C11.8423 4.41795 11.2543 4.10315 10.8207 3.70521C10.6247 3.52702 10.4525 3.38447 10.4406 3.38447C10.4346 3.39041 10.2268 3.57454 9.98324 3.80618Z" fill="#0066DF"/>
<path d="M23.9054 21.5296C23.751 21.6781 23.7153 21.9038 23.8104 22.0879C23.8401 22.1414 24.5587 22.6462 25.4022 23.2105C26.4653 23.9173 26.988 24.2321 27.1008 24.2321C27.4275 24.2321 27.6592 23.8223 27.5047 23.5253C27.475 23.4718 26.7564 22.967 25.913 22.4027C24.8498 21.6959 24.3271 21.3811 24.2143 21.3811C24.1192 21.3811 23.9886 21.4405 23.9054 21.5296Z" fill="#0066DF"/>
<path d="M22.4799 22.4799C22.2364 22.7175 22.2839 22.8779 22.8779 23.7747C23.1749 24.2261 23.4718 24.6182 23.5253 24.6538C23.8223 24.8082 24.2321 24.5766 24.2321 24.2499C24.2321 24.0717 23.2164 22.4799 23.0383 22.3849C22.8541 22.2899 22.6284 22.3255 22.4799 22.4799Z" fill="#0066DF"/>
</svg>
