<svg width="25" height="26" viewBox="0 0 25 26" fill="none" xmlns="http://www.w3.org/2000/svg">
<path d="M7.04179 0.591953C5.81692 0.771515 4.25858 1.23966 3.30306 1.71421C1.62287 2.54789 0.66735 3.71504 0.192795 5.49142C0.0581237 6.01087 0.0324721 6.28021 0.00682043 7.35116C-0.03807 9.19167 0.122253 10.269 0.981583 13.9565C1.52668 16.2908 1.68059 17.0603 1.78961 17.9966C1.87939 18.779 1.8345 19.8179 1.69342 20.2796C1.6357 20.4592 1.30223 21.0684 0.943106 21.6455C0.590396 22.2163 0.308227 22.6973 0.321053 22.7101C0.365944 22.755 9.29913 26.0192 9.31837 25.9999C9.33761 25.9871 9.75445 25.1855 10.2547 24.2171C10.7549 23.2488 11.1717 22.4472 11.1781 22.4343C11.1909 22.4215 11.3769 22.5049 11.595 22.6139C13.0507 23.3514 14.5257 23.6849 15.1413 23.4219C15.4171 23.3065 15.6607 23.0307 15.8275 22.6588C15.9301 22.4343 15.9878 22.0816 16.0519 21.3377C16.1032 20.7798 16.1866 20.1962 16.2443 20.0423C16.4111 19.5934 16.4111 19.5934 15.9237 19.4395C15.68 19.3626 15.3209 19.2279 15.1285 19.1445L14.7822 18.9906H15.3209C15.7826 18.9906 15.9108 18.9649 16.2251 18.811C16.8984 18.484 17.2383 17.7721 17.2383 16.7076V16.1369H17.4179C17.5205 16.1369 17.9245 16.1817 18.3285 16.233C18.7261 16.2844 19.066 16.3164 19.0852 16.2972C19.0981 16.2844 18.7902 15.2262 18.3926 13.9436L17.668 11.6158L17.8411 11.1348C18.1105 10.3781 18.2003 9.82655 18.2003 8.94798C18.2003 7.98604 18.0848 7.28062 17.7898 6.3764C17.3281 4.99121 16.9497 4.36916 16.007 3.46494C14.3461 1.87454 12.4286 0.919012 10.2162 0.585541C9.42739 0.470108 7.87546 0.470108 7.04179 0.591953Z" fill="#0066DF"/>
<path d="M22.9522 16.1817C22.6765 16.4126 22.7149 16.6306 23.1318 17.2142C24.7222 19.4203 24.1771 22.3253 21.8684 23.8901C21.3875 24.2171 21.272 24.4095 21.4131 24.6532C21.4644 24.7494 21.5863 24.8648 21.676 24.9225C21.8364 25.0059 21.8748 25.0059 22.125 24.8777C22.5674 24.666 23.3498 24.0119 23.7346 23.5309C24.1835 22.9794 24.5554 22.2868 24.7735 21.5878C25.03 20.8055 25.0749 19.4972 24.8761 18.6828C24.6709 17.8106 24.1835 16.8487 23.6576 16.2779C23.4396 16.0407 23.1703 16.0086 22.9522 16.1817Z" fill="#0066DF"/>
<path d="M21.2913 17.6567C21.0476 17.8619 21.054 18.0543 21.3362 18.484C21.7081 19.0547 21.8107 19.4331 21.7787 20.068C21.7338 20.9209 21.5285 21.2479 20.5153 22.1073C20.278 22.3125 20.2588 22.5241 20.4512 22.7678C20.6243 22.9858 20.9129 22.9858 21.2464 22.7678C22.234 22.1137 22.7791 21.1005 22.7791 19.9205C22.7855 19.1958 22.6316 18.67 22.2404 18.0671C21.9005 17.5413 21.5863 17.4066 21.2913 17.6567Z" fill="#0066DF"/>
<path d="M19.2712 18.3237C19.0532 18.4519 19.0211 18.6892 19.1622 19.0932C19.2327 19.3048 19.2905 19.5229 19.2905 19.587C19.2905 19.8115 19.1558 20.1642 18.9698 20.4399C18.7389 20.7862 18.7261 20.9658 18.9377 21.171C19.284 21.5237 19.6816 21.2992 20.0472 20.5618C20.1947 20.2539 20.2139 20.1321 20.2139 19.5998C20.2139 18.7084 19.9766 18.2467 19.5341 18.2531C19.4508 18.2531 19.3353 18.2852 19.2712 18.3237Z" fill="#0066DF"/>
</svg>
