<svg width="26" height="30" viewBox="0 0 26 30" fill="none" xmlns="http://www.w3.org/2000/svg">
<path d="M12.7513 0.0204248C12.5552 0.0939903 12.4203 0.277904 11.7275 1.39978C11.0716 2.46034 10.998 2.55843 10.7957 2.61361C10.6731 2.64426 10.0662 2.79752 9.44701 2.95078C8.82171 3.10404 8.25158 3.26956 8.17188 3.31861C8.09831 3.36765 8.01249 3.50252 7.98184 3.61287C7.88988 3.96231 7.85923 3.91326 9.39184 5.72174L9.82097 6.22444L9.72288 7.48731C9.66771 8.18006 9.6248 8.84214 9.6248 8.96475C9.6248 9.25288 9.90067 9.54102 10.1765 9.54102C10.2808 9.54102 10.949 9.30806 11.654 9.01993L12.9414 8.49884L14.2226 9.01993C14.9276 9.30806 15.5959 9.54102 15.7001 9.54102C15.9576 9.54102 16.2457 9.25288 16.2457 8.99541C16.2457 8.89119 16.2028 8.22297 16.1476 7.51797L16.0556 6.22444L16.4786 5.72174C18.0113 3.91326 17.9806 3.96231 17.8886 3.61287C17.858 3.50252 17.766 3.36765 17.6802 3.30635C17.5944 3.25117 17.0242 3.08565 16.4112 2.93852C15.7982 2.79139 15.1974 2.64426 15.0748 2.61361C14.8725 2.55843 14.7989 2.46034 14.1429 1.39978C13.7506 0.762209 13.3766 0.198208 13.3153 0.143034C13.1927 0.0265551 12.8923 -0.034749 12.7513 0.0204248Z" fill="#0066DF"/>
<path d="M3.61697 4.28739C3.50049 4.34869 2.4767 5.86291 2.37861 6.12652C2.36635 6.15105 1.87592 6.29818 1.28739 6.44531C0.159392 6.72731 0 6.81313 0 7.12579C0 7.26066 0.128739 7.43231 1.06057 8.55418L1.42226 8.98944L1.34257 10.0929L1.269 11.1964L1.41 11.3497C1.4897 11.4355 1.61844 11.5029 1.69813 11.5029C1.77783 11.5029 2.28666 11.3251 2.82614 11.1045L3.80088 10.706L4.78175 11.1045C5.32123 11.3251 5.83006 11.5029 5.90362 11.5029C5.98332 11.5029 6.11206 11.4355 6.19176 11.3497L6.33276 11.1964L6.25919 10.0929L6.17949 8.98944L6.54119 8.55418C7.47302 7.43231 7.60176 7.26066 7.60176 7.12579C7.60176 6.81313 7.44237 6.72731 6.32663 6.44531C5.74423 6.30431 5.2538 6.16944 5.24767 6.15718C5.2354 6.15105 4.99019 5.74644 4.69593 5.26826C4.40166 4.79622 4.13192 4.37321 4.08901 4.34256C3.94801 4.23221 3.77023 4.20769 3.61697 4.28739Z" fill="#0066DF"/>
<path d="M21.8858 4.28739C21.7693 4.34869 20.7455 5.86291 20.6474 6.12652C20.6352 6.15105 20.1447 6.29818 19.5562 6.44531C18.4282 6.72731 18.2688 6.81313 18.2688 7.12579C18.2688 7.26066 18.3975 7.43231 19.3294 8.55418L19.6911 8.98944L19.6114 10.0929L19.5378 11.1964L19.6788 11.3497C19.7585 11.4355 19.8872 11.5029 19.9669 11.5029C20.0466 11.5029 20.5555 11.3251 21.0949 11.1045L22.0697 10.706L23.0506 11.1045C23.59 11.3251 24.0989 11.5029 24.1724 11.5029C24.2521 11.5029 24.3809 11.4355 24.4606 11.3497L24.6016 11.1964L24.528 10.0929L24.4483 8.98944L24.81 8.55418C25.7418 7.43231 25.8706 7.26066 25.8706 7.12579C25.8706 6.81313 25.7112 6.72731 24.5954 6.44531C24.013 6.30431 23.5226 6.16944 23.5165 6.15718C23.5042 6.15105 23.259 5.74644 22.9647 5.26826C22.6705 4.79622 22.4007 4.37321 22.3578 4.34256C22.2168 4.23221 22.039 4.20769 21.8858 4.28739Z" fill="#0066DF"/>
<path d="M7.83484 13.3052C7.01336 13.5259 6.55971 14.3535 6.55971 15.6348C6.55971 17.1429 7.29536 18.6693 8.2701 19.1598C8.39884 19.2272 8.64406 19.313 8.80345 19.3498C8.96897 19.3866 9.15289 19.4602 9.20806 19.5153C9.36745 19.6563 9.34906 19.9751 9.17741 20.1345C9.03641 20.2694 9.01189 20.2694 6.77427 20.2694C4.61635 20.2694 4.49987 20.2755 4.25466 20.3981C4.05848 20.4901 3.9604 20.5943 3.86231 20.7966C3.69679 21.1399 3.73357 21.4158 3.99105 21.7039C4.27918 22.0411 4.49374 22.0656 6.90301 22.0411L9.02415 22.0166L9.14063 22.1637C9.29389 22.3537 9.28776 22.6235 9.12223 22.7829C8.99349 22.8993 8.91993 22.9055 6.7191 22.9055C4.21787 22.9055 4.17496 22.9116 3.89909 23.2917C3.72744 23.5308 3.73357 23.9844 3.91135 24.2358C4.18109 24.6159 4.23014 24.622 6.73749 24.622H9.01802L9.16515 24.7753C9.34906 24.953 9.36132 25.1676 9.20193 25.3638L9.08545 25.5109L6.85397 25.5416C4.64701 25.5722 4.62861 25.5722 4.42631 25.7132C4.04622 25.9891 3.92974 26.4918 4.16883 26.878C4.39566 27.2458 4.47535 27.2581 6.95819 27.2581H9.20193L9.34906 27.4114C9.43489 27.4911 9.50232 27.6321 9.50232 27.7179C9.50232 27.8037 9.43489 27.9447 9.34906 28.0244L9.20193 28.1777H7.37506C5.59723 28.1777 5.53592 28.1838 5.27231 28.3187C4.62248 28.6497 4.64701 29.4773 5.31522 29.8084C5.51753 29.9065 5.78727 29.931 7.32601 29.9739C11.1759 30.0781 13.2174 29.8758 14.3576 29.2689C14.5783 29.1524 14.8971 28.8827 15.222 28.5455C15.8228 27.9202 16.0619 27.8098 16.8527 27.8098C17.1102 27.8098 17.38 27.7914 17.4596 27.7731L17.5945 27.7363V24.622V21.5139L17.098 21.4464C16.2029 21.3177 15.8903 21.1031 15.1056 20.0671C14.3883 19.123 14.1615 18.8778 13.7936 18.6203C13.3645 18.3199 13.2051 18.2525 11.8809 17.8172C11.2802 17.621 10.6303 17.3697 10.4403 17.2593C9.90693 16.9589 9.37971 16.3949 9.10997 15.8555C8.80345 15.2302 8.70536 14.8378 8.66858 14.047C8.61954 13.1765 8.54597 13.1151 7.83484 13.3052Z" fill="#0066DF"/>
<path d="M18.4955 20.3122C18.471 20.3306 18.4526 22.3169 18.4526 24.7262V29.0972H20.2918H22.1309V24.6832V20.2693H20.3347C19.3416 20.2693 18.5139 20.2877 18.4955 20.3122Z" fill="#0066DF"/>
</svg>
