<svg width="25" height="25" viewBox="0 0 25 25" fill="none" xmlns="http://www.w3.org/2000/svg">
<path d="M1.01585 0.0657959C0.605604 0.19766 0.253963 0.539534 0.0879102 0.969316C0.0048839 1.18421 0 1.80935 0 12.5246V23.8553L0.126981 24.1288C0.278382 24.4511 0.537229 24.7148 0.849799 24.8662L1.07446 24.9786L8.42473 24.9932C16.7567 25.0079 16.0827 25.0372 16.5564 24.6074C16.7127 24.4609 16.8592 24.2704 16.9276 24.1141L17.0448 23.8553L17.0595 17.809C17.0643 14.488 17.0546 11.7676 17.035 11.7676C17.0106 11.7676 16.112 12.6516 15.0278 13.7358L13.0595 15.704L13.2647 15.7675C13.9289 15.9678 14.0119 16.8029 13.3965 17.1204C13.2842 17.179 12.493 17.1887 8.4638 17.1887C3.99015 17.1887 3.65316 17.1839 3.49199 17.1008C2.95964 16.8371 2.96941 16.085 3.51152 15.8261C3.71176 15.7285 3.78991 15.7236 6.0365 15.7236H8.35147L8.66892 14.7908C8.84474 14.2731 8.99614 13.8335 9.00103 13.814C9.01079 13.7896 7.82889 13.77 6.3393 13.77C3.88758 13.77 3.64827 13.7602 3.49199 13.6821C2.95964 13.4184 2.96941 12.6663 3.51152 12.4074C3.71176 12.3048 3.78502 12.3048 6.64699 12.3048H9.57244L10.5492 11.3281L11.526 10.3513H7.59446C3.95107 10.3513 3.64827 10.3464 3.49199 10.2634C2.95964 9.99965 2.96941 9.24753 3.51152 8.98868C3.71665 8.88612 3.76549 8.88612 8.35635 8.88612H12.9912L15.0082 6.86907L17.0204 4.8569V2.9766C17.0204 1.11095 17.0204 1.0963 16.9032 0.852104C16.8397 0.71047 16.6834 0.510231 16.5418 0.383249C16.0778 -0.0318832 16.7274 -0.00257874 8.50287 0.00230408C2.62754 0.00230408 1.1819 0.0169563 1.01585 0.0657959ZM13.5919 3.26963C14.0607 3.5529 14.0559 4.16339 13.587 4.51014C13.4503 4.61271 13.4307 4.61271 8.75195 4.62736C6.16837 4.63713 3.93642 4.62736 3.78991 4.61271C3.57501 4.5834 3.49199 4.54433 3.33082 4.39781C3.155 4.23176 3.13058 4.18292 3.11593 3.9485C3.09151 3.64081 3.19895 3.42592 3.45292 3.26963C3.6092 3.17196 3.71176 3.17196 8.5224 3.17196C13.333 3.17196 13.4356 3.17196 13.5919 3.26963ZM13.4063 19.2498C13.6749 19.3914 13.8117 19.6112 13.8068 19.914C13.8068 20.163 13.7042 20.3291 13.4551 20.4951L13.294 20.6075H8.47845C3.99015 20.6075 3.65316 20.6026 3.49199 20.5196C2.96453 20.2558 2.96941 19.5086 3.50664 19.2449C3.71176 19.1423 3.74107 19.1423 8.44915 19.1423H13.1914L13.4063 19.2498Z" fill="#0066DF"/>
<path d="M23.7846 0.383272C23.5502 0.441879 23.4671 0.505369 23.0422 0.935152L22.6369 1.34052L23.3206 2.02426L24.0044 2.70801L24.3511 2.36613C24.8932 1.82891 25.0446 1.49192 24.9323 1.07679C24.8737 0.852126 24.6442 0.563976 24.4488 0.466298C24.2779 0.378388 23.9653 0.339317 23.7846 0.383272Z" fill="#0066DF"/>
<path d="M17.0692 6.86906L12.62 11.3476L13.3086 12.0313L13.9973 12.72L18.4611 8.22678L22.9201 3.7336L22.2559 3.05962C21.8896 2.69333 21.5722 2.39052 21.5575 2.39052C21.538 2.39052 19.5209 4.40757 17.0692 6.86906Z" fill="#0066DF"/>
<path d="M11.1548 12.8274L10.7348 13.2572L10.3881 14.2731C10.1927 14.8396 10.0657 15.284 10.0999 15.2743C10.1292 15.2596 10.5981 15.0984 11.1353 14.9177L12.1121 14.5856L12.5174 14.19C12.7372 13.9751 12.9179 13.7749 12.9179 13.7456C12.9179 13.6968 11.6481 12.4025 11.5993 12.4025C11.5846 12.4025 11.3844 12.593 11.1548 12.8274Z" fill="#0066DF"/>
</svg>
