<svg width="27" height="27" viewBox="0 0 27 27" fill="none" xmlns="http://www.w3.org/2000/svg">
<path d="M19.4869 0.0923405C19.0804 0.227848 18.6739 0.504753 18.45 0.79344C18.1967 1.12337 17.5073 2.2251 17.4308 2.4313C17.1244 3.24434 17.3188 4.1811 17.9198 4.77616C18.0553 4.91166 18.4795 5.21803 18.8624 5.45958C19.2395 5.69525 19.5635 5.90734 19.5812 5.93091C19.593 5.95448 19.5105 6.11944 19.3927 6.29619L19.1806 6.62023L18.4088 6.23138C15.787 4.91166 12.8294 4.69957 10.025 5.61865C8.81724 6.0075 7.18527 6.90302 6.94372 7.30365C6.6786 7.73963 6.84356 8.34646 7.29132 8.61158C7.63893 8.8119 7.92761 8.76476 8.48731 8.42894C9.48299 7.81622 10.3373 7.45094 11.3035 7.21528C12.9414 6.80876 14.6853 6.86767 16.2878 7.38024C16.983 7.60412 18.3322 8.29933 18.9154 8.73531C22.4916 11.4219 23.6051 16.2353 21.5784 20.2003C20.3117 22.6748 18.1142 24.348 15.298 24.9784C14.7736 25.0963 14.5321 25.1139 13.4834 25.1139C12.4347 25.1139 12.1931 25.0963 11.6688 24.9784C10.4963 24.7133 9.53602 24.3245 8.59336 23.7235C8.12793 23.4289 8.06901 23.4054 7.7273 23.4054C7.45039 23.4054 7.32667 23.4348 7.19706 23.5291C6.9555 23.7117 6.8141 23.9828 6.8141 24.2832C6.8141 24.7899 7.03209 25.0256 8.06312 25.6088C9.13539 26.2274 10.4315 26.6811 11.7748 26.9227C12.364 27.0228 14.5969 27.0287 15.1919 26.9227C18.8271 26.2805 21.7846 24.0888 23.3577 20.872C25.4198 16.6536 24.5773 11.6163 21.2485 8.27576C20.9657 7.98708 20.73 7.73963 20.73 7.72784C20.73 7.71606 20.8361 7.53342 20.9716 7.32133L21.2073 6.94426L21.985 7.44505C22.8864 8.02832 23.1986 8.14026 23.8467 8.1108C24.212 8.09312 24.3711 8.05188 24.6951 7.89281C25.1605 7.66304 25.3903 7.41559 25.9736 6.4965C26.4802 5.70703 26.5863 5.38299 26.5509 4.73491C26.5333 4.33429 26.492 4.19878 26.3271 3.88653C26.221 3.68032 26.003 3.40342 25.8498 3.26791C25.5317 2.97922 21.384 0.328005 20.9775 0.145365C20.5886 -0.0254917 19.917 -0.049057 19.4869 0.0923405Z" fill="#0066DF"/>
<path d="M12.364 8.91209C10.5788 9.20667 8.8585 10.22 7.78623 11.6045L7.527 11.9463H4.15701H0.781123L0.521893 12.0759C0.133048 12.2762 -0.0260253 12.5413 0.00343269 12.9537C0.0328907 13.3367 0.191964 13.5959 0.486543 13.7373C0.663291 13.8198 1.04035 13.8316 3.64444 13.8316C6.43116 13.8316 6.59613 13.8375 6.56667 13.9317C6.4724 14.244 6.34279 14.8921 6.30744 15.2632L6.2662 15.6874L4.08631 15.7169C2.02425 15.7463 1.89463 15.7522 1.70021 15.8701C1.10516 16.2177 1.08749 17.0189 1.66486 17.449C1.81804 17.5668 1.9182 17.5727 4.12755 17.6022L6.42527 17.6316L6.56667 18.1265C6.64915 18.3976 6.80233 18.8159 6.91427 19.0515L7.11459 19.4875H3.94491H0.781123L0.521893 19.623C0.133048 19.8174 -0.0260253 20.0825 0.00343269 20.495C0.0328907 20.8779 0.191964 21.1371 0.486543 21.2785C0.663291 21.361 1.11694 21.3728 4.65779 21.3728H8.63462L8.77602 21.526C8.98811 21.7499 9.88364 22.339 10.3726 22.5688C11.333 23.0283 12.3876 23.2581 13.4834 23.2581C18.0317 23.2581 21.384 19.2047 20.5769 14.6858C20.082 11.9109 17.8903 9.63675 15.0918 8.99457C14.4025 8.84139 13.0533 8.79426 12.364 8.91209ZM16.494 13.0833C16.7768 13.2719 16.9712 13.6784 16.9241 13.9789C16.8711 14.3147 16.8063 14.4031 16.058 15.0629L15.3864 15.658L15.3569 16.1116C15.3098 16.9188 14.9268 17.4961 14.2316 17.8143C13.2772 18.2444 12.1401 17.8143 11.6982 16.8481C11.5097 16.4415 11.5156 15.6815 11.7159 15.275C11.9162 14.8567 12.3522 14.4561 12.7587 14.3029C13.0474 14.191 13.1829 14.1792 13.6248 14.2027L14.155 14.2322L14.7737 13.6902C15.1154 13.3897 15.463 13.101 15.5455 13.048C15.7634 12.9007 16.2466 12.9184 16.494 13.0833Z" fill="#0066DF"/>
</svg>
